# xmcd CD database file
#
# Track frame offsets:
#	150
#	19955
#	38297
#	57675
#	76730
#	87500
#	105657
#	125940
#	145097
#	163040
#	184220
#	206915
#	225220
#	240837
#	262212
#
# Disc length: 3753 seconds
#
# Revision: 7
# Processed by: cddbd v1.5.2PL0 Copyright (c) Steve Scherf et al.
# Submitted via: CDex 1.70beta2
#
DISCID=cb0ea70f
DTITLE=任賢齊 - 情義CD1
DYEAR=2004
DGENRE=Pop
TTITLE0=妳是我老婆
TTITLE1=好說話
TTITLE2=永遠
TTITLE3=沖繩之戀
TTITLE4=花好月圓夜（V.S.楊千樺合唱）
TTITLE5=春天花會開
TTITLE6=依靠
TTITLE7=我是一隻魚
TTITLE8=燭光
TTITLE9=哭個痛快
TTITLE10=流著淚的妳的臉
TTITLE11=風暴（V.S.李心潔合唱）
TTITLE12=水晶（V.S.徐懷鈺合唱）
TTITLE13=永夜
TTITLE14=給妳幸福
EXTD=YEAR: 2004
EXTT0=
EXTT1=
EXTT2=
EXTT3=
EXTT4=
EXTT5=
EXTT6=
EXTT7=
EXTT8=
EXTT9=
EXTT10=
EXTT11=
EXTT12=
EXTT13=
EXTT14=
PLAYORDER=
